<svg id="visual" viewBox="0 0 900 600" width="900" height="600" xmlns="http://www.w3.org/2000/svg" xmlns:xlink="http://www.w3.org/1999/xlink" version="1.1"><path d="M0 85L13.7 83C27.3 81 54.7 77 82 73C109.3 69 136.7 65 163.8 66C191 67 218 73 245.2 77C272.3 81 299.7 83 327 76C354.3 69 381.7 53 409 48C436.3 43 463.7 49 491 58C518.3 67 545.7 79 573 77C600.3 75 627.7 59 654.8 57C682 55 709 67 736.2 69C763.3 71 790.7 63 818 56C845.3 49 872.7 43 886.3 40L900 37L900 0L886.3 0C872.7 0 845.3 0 818 0C790.7 0 763.3 0 736.2 0C709 0 682 0 654.8 0C627.7 0 600.3 0 573 0C545.7 0 518.3 0 491 0C463.7 0 436.3 0 409 0C381.7 0 354.3 0 327 0C299.7 0 272.3 0 245.2 0C218 0 191 0 163.8 0C136.7 0 109.3 0 82 0C54.7 0 27.3 0 13.7 0L0 0Z" fill="#6198ff"></path><path d="M0 133L13.7 138C27.3 143 54.7 153 82 152C109.3 151 136.7 139 163.8 132C191 125 218 123 245.2 126C272.3 129 299.7 137 327 136C354.3 135 381.7 125 409 119C436.3 113 463.7 111 491 123C518.3 135 545.7 161 573 168C600.3 175 627.7 163 654.8 156C682 149 709 147 736.2 144C763.3 141 790.7 137 818 136C845.3 135 872.7 137 886.3 138L900 139L900 35L886.3 38C872.7 41 845.3 47 818 54C790.7 61 763.3 69 736.2 67C709 65 682 53 654.8 55C627.7 57 600.3 73 573 75C545.7 77 518.3 65 491 56C463.7 47 436.3 41 409 46C381.7 51 354.3 67 327 74C299.7 81 272.3 79 245.2 75C218 71 191 65 163.8 64C136.7 63 109.3 67 82 71C54.7 75 27.3 79 13.7 81L0 83Z" fill="#3c80ff"></path><path d="M0 199L13.7 213C27.3 227 54.7 255 82 257C109.3 259 136.7 235 163.8 220C191 205 218 199 245.2 209C272.3 219 299.7 245 327 261C354.3 277 381.7 283 409 278C436.3 273 463.7 257 491 249C518.3 241 545.7 241 573 240C600.3 239 627.7 237 654.8 235C682 233 709 231 736.2 231C763.3 231 790.7 233 818 236C845.3 239 872.7 243 886.3 245L900 247L900 137L886.3 136C872.7 135 845.3 133 818 134C790.7 135 763.3 139 736.2 142C709 145 682 147 654.8 154C627.7 161 600.3 173 573 166C545.7 159 518.3 133 491 121C463.7 109 436.3 111 409 117C381.7 123 354.3 133 327 134C299.7 135 272.3 127 245.2 124C218 121 191 123 163.8 130C136.7 137 109.3 149 82 150C54.7 151 27.3 141 13.7 136L0 131Z" fill="#0066ff"></path><path d="M0 415L13.7 419C27.3 423 54.7 431 82 427C109.3 423 136.7 407 163.8 398C191 389 218 387 245.2 382C272.3 377 299.7 369 327 378C354.3 387 381.7 413 409 431C436.3 449 463.7 459 491 458C518.3 457 545.7 445 573 436C600.3 427 627.7 421 654.8 424C682 427 709 439 736.2 439C763.3 439 790.7 427 818 423C845.3 419 872.7 423 886.3 425L900 427L900 245L886.3 243C872.7 241 845.3 237 818 234C790.7 231 763.3 229 736.2 229C709 229 682 231 654.8 233C627.7 235 600.3 237 573 238C545.7 239 518.3 239 491 247C463.7 255 436.3 271 409 276C381.7 281 354.3 275 327 259C299.7 243 272.3 217 245.2 207C218 197 191 203 163.8 218C136.7 233 109.3 257 82 255C54.7 253 27.3 225 13.7 211L0 197Z" fill="#0059dd"></path><path d="M0 601L13.7 601C27.3 601 54.7 601 82 601C109.3 601 136.7 601 163.8 601C191 601 218 601 245.2 601C272.3 601 299.7 601 327 601C354.3 601 381.7 601 409 601C436.3 601 463.7 601 491 601C518.3 601 545.7 601 573 601C600.3 601 627.7 601 654.8 601C682 601 709 601 736.2 601C763.3 601 790.7 601 818 601C845.3 601 872.7 601 886.3 601L900 601L900 425L886.3 423C872.7 421 845.3 417 818 421C790.7 425 763.3 437 736.2 437C709 437 682 425 654.8 422C627.7 419 600.3 425 573 434C545.7 443 518.3 455 491 456C463.7 457 436.3 447 409 429C381.7 411 354.3 385 327 376C299.7 367 272.3 375 245.2 380C218 385 191 387 163.8 396C136.7 405 109.3 421 82 425C54.7 429 27.3 421 13.7 417L0 413Z" fill="#004cbb"></path></svg>